<svg width="154" height="31" viewBox="0 0 154 31" fill="none" xmlns="http://www.w3.org/2000/svg">
<path d="M0.659091 0.727272H6.17045L11.4773 10.75H11.7045L17.0114 0.727272H22.5227L14.0341 15.7727V24H9.14773V15.7727L0.659091 0.727272ZM29.0294 24.3409C27.2643 24.3409 25.7378 23.9659 24.4499 23.2159C23.1696 22.4583 22.1809 21.4053 21.484 20.0568C20.787 18.7008 20.4385 17.1288 20.4385 15.3409C20.4385 13.5379 20.787 11.9621 21.484 10.6136C22.1809 9.25758 23.1696 8.20454 24.4499 7.45454C25.7378 6.69697 27.2643 6.31818 29.0294 6.31818C30.7946 6.31818 32.3173 6.69697 33.5976 7.45454C34.8855 8.20454 35.8779 9.25758 36.5749 10.6136C37.2719 11.9621 37.6203 13.5379 37.6203 15.3409C37.6203 17.1288 37.2719 18.7008 36.5749 20.0568C35.8779 21.4053 34.8855 22.4583 33.5976 23.2159C32.3173 23.9659 30.7946 24.3409 29.0294 24.3409ZM29.0522 20.5909C29.8552 20.5909 30.5256 20.3636 31.0635 19.9091C31.6014 19.447 32.0067 18.8182 32.2794 18.0227C32.5597 17.2273 32.6999 16.322 32.6999 15.3068C32.6999 14.2917 32.5597 13.3864 32.2794 12.5909C32.0067 11.7955 31.6014 11.1667 31.0635 10.7045C30.5256 10.2424 29.8552 10.0114 29.0522 10.0114C28.2416 10.0114 27.5597 10.2424 27.0067 10.7045C26.4613 11.1667 26.0484 11.7955 25.7681 12.5909C25.4953 13.3864 25.359 14.2917 25.359 15.3068C25.359 16.322 25.4953 17.2273 25.7681 18.0227C26.0484 18.8182 26.4613 19.447 27.0067 19.9091C27.5597 20.3636 28.2416 20.5909 29.0522 20.5909ZM51.6413 16.5682V6.54545H56.4822V24H51.8344V20.8295H51.6526C51.2587 21.8523 50.6034 22.6742 49.6867 23.2955C48.7776 23.9167 47.6678 24.2273 46.3572 24.2273C45.1905 24.2273 44.164 23.9621 43.2776 23.4318C42.3913 22.9015 41.6981 22.1477 41.1981 21.1705C40.7056 20.1932 40.4556 19.0227 40.4481 17.6591V6.54545H45.289V16.7955C45.2966 17.8258 45.5731 18.6402 46.1185 19.2386C46.664 19.8371 47.395 20.1364 48.3117 20.1364C48.895 20.1364 49.4405 20.0038 49.9481 19.7386C50.4556 19.4659 50.8647 19.0644 51.1753 18.5341C51.4935 18.0038 51.6488 17.3485 51.6413 16.5682ZM60.0343 24V6.54545H64.7275V9.59091H64.9093C65.2275 8.50758 65.7616 7.68939 66.5116 7.13636C67.2616 6.57576 68.1252 6.29545 69.1025 6.29545C69.3449 6.29545 69.6063 6.31061 69.8866 6.34091C70.1669 6.37121 70.4131 6.41288 70.6252 6.46591V10.7614C70.398 10.6932 70.0836 10.6326 69.682 10.5795C69.2805 10.5265 68.9131 10.5 68.5798 10.5C67.8677 10.5 67.2313 10.6553 66.6707 10.9659C66.1177 11.2689 65.6783 11.6932 65.3525 12.2386C65.0343 12.7841 64.8752 13.4129 64.8752 14.125V24H60.0343ZM79.9852 24V0.727272H84.9057V19.9432H94.883V24H79.9852ZM105.617 24.3409C103.852 24.3409 102.325 23.9659 101.037 23.2159C99.7571 22.4583 98.7684 21.4053 98.0715 20.0568C97.3745 18.7008 97.026 17.1288 97.026 15.3409C97.026 13.5379 97.3745 11.9621 98.0715 10.6136C98.7684 9.25758 99.7571 8.20454 101.037 7.45454C102.325 6.69697 103.852 6.31818 105.617 6.31818C107.382 6.31818 108.905 6.69697 110.185 7.45454C111.473 8.20454 112.465 9.25758 113.162 10.6136C113.859 11.9621 114.208 13.5379 114.208 15.3409C114.208 17.1288 113.859 18.7008 113.162 20.0568C112.465 21.4053 111.473 22.4583 110.185 23.2159C108.905 23.9659 107.382 24.3409 105.617 24.3409ZM105.64 20.5909C106.443 20.5909 107.113 20.3636 107.651 19.9091C108.189 19.447 108.594 18.8182 108.867 18.0227C109.147 17.2273 109.287 16.322 109.287 15.3068C109.287 14.2917 109.147 13.3864 108.867 12.5909C108.594 11.7955 108.189 11.1667 107.651 10.7045C107.113 10.2424 106.443 10.0114 105.64 10.0114C104.829 10.0114 104.147 10.2424 103.594 10.7045C103.049 11.1667 102.636 11.7955 102.356 12.5909C102.083 13.3864 101.946 14.2917 101.946 15.3068C101.946 16.322 102.083 17.2273 102.356 18.0227C102.636 18.8182 103.049 19.447 103.594 19.9091C104.147 20.3636 104.829 20.5909 105.64 20.5909ZM124.899 30.9091C123.331 30.9091 121.986 30.6932 120.865 30.2614C119.751 29.8371 118.865 29.2576 118.206 28.5227C117.547 27.7879 117.119 26.9621 116.922 26.0455L121.399 25.4432C121.536 25.7917 121.751 26.1174 122.047 26.4205C122.342 26.7235 122.733 26.9659 123.217 27.1477C123.71 27.3371 124.308 27.4318 125.013 27.4318C126.066 27.4318 126.933 27.1742 127.615 26.6591C128.305 26.1515 128.649 25.2992 128.649 24.1023V20.9091H128.445C128.233 21.3939 127.914 21.8523 127.49 22.2841C127.066 22.7159 126.52 23.0682 125.854 23.3409C125.187 23.6136 124.392 23.75 123.467 23.75C122.157 23.75 120.964 23.447 119.888 22.8409C118.82 22.2273 117.967 21.2917 117.331 20.0341C116.702 18.7689 116.388 17.1705 116.388 15.2386C116.388 13.2614 116.71 11.6098 117.354 10.2841C117.998 8.95833 118.854 7.96591 119.922 7.30682C120.998 6.64773 122.176 6.31818 123.456 6.31818C124.433 6.31818 125.251 6.48485 125.911 6.81818C126.57 7.14394 127.1 7.55303 127.501 8.04545C127.911 8.5303 128.225 9.00758 128.445 9.47727H128.626V6.54545H133.433V24.1705C133.433 25.6553 133.07 26.8977 132.342 27.8977C131.615 28.8977 130.608 29.6477 129.32 30.1477C128.039 30.6553 126.566 30.9091 124.899 30.9091ZM125.001 20.1136C125.782 20.1136 126.441 19.9205 126.979 19.5341C127.524 19.1402 127.941 18.5795 128.229 17.8523C128.524 17.1174 128.672 16.2386 128.672 15.2159C128.672 14.1932 128.528 13.3068 128.24 12.5568C127.952 11.7992 127.536 11.2121 126.99 10.7955C126.445 10.3788 125.782 10.1705 125.001 10.1705C124.206 10.1705 123.536 10.3864 122.99 10.8182C122.445 11.2424 122.032 11.8333 121.751 12.5909C121.471 13.3485 121.331 14.2235 121.331 15.2159C121.331 16.2235 121.471 17.0947 121.751 17.8295C122.039 18.5568 122.452 19.1212 122.99 19.5227C123.536 19.9167 124.206 20.1136 125.001 20.1136ZM144.852 24.3409C143.087 24.3409 141.56 23.9659 140.272 23.2159C138.992 22.4583 138.003 21.4053 137.306 20.0568C136.61 18.7008 136.261 17.1288 136.261 15.3409C136.261 13.5379 136.61 11.9621 137.306 10.6136C138.003 9.25758 138.992 8.20454 140.272 7.45454C141.56 6.69697 143.087 6.31818 144.852 6.31818C146.617 6.31818 148.14 6.69697 149.42 7.45454C150.708 8.20454 151.7 9.25758 152.397 10.6136C153.094 11.9621 153.443 13.5379 153.443 15.3409C153.443 17.1288 153.094 18.7008 152.397 20.0568C151.7 21.4053 150.708 22.4583 149.42 23.2159C148.14 23.9659 146.617 24.3409 144.852 24.3409ZM144.875 20.5909C145.678 20.5909 146.348 20.3636 146.886 19.9091C147.424 19.447 147.829 18.8182 148.102 18.0227C148.382 17.2273 148.522 16.322 148.522 15.3068C148.522 14.2917 148.382 13.3864 148.102 12.5909C147.829 11.7955 147.424 11.1667 146.886 10.7045C146.348 10.2424 145.678 10.0114 144.875 10.0114C144.064 10.0114 143.382 10.2424 142.829 10.7045C142.284 11.1667 141.871 11.7955 141.591 12.5909C141.318 13.3864 141.181 14.2917 141.181 15.3068C141.181 16.322 141.318 17.2273 141.591 18.0227C141.871 18.8182 142.284 19.447 142.829 19.9091C143.382 20.3636 144.064 20.5909 144.875 20.5909Z" fill="#808194"/>
</svg>
